<?xml version="1.0" encoding="UTF-8" standalone="no"?>
<svg
   xmlns:dc="http://purl.org/dc/elements/1.1/"
   xmlns:cc="http://creativecommons.org/ns#"
   xmlns:rdf="http://www.w3.org/1999/02/22-rdf-syntax-ns#"
   xmlns:svg="http://www.w3.org/2000/svg"
   xmlns="http://www.w3.org/2000/svg"
   xmlns:sodipodi="http://sodipodi.sourceforge.net/DTD/sodipodi-0.dtd"
   xmlns:inkscape="http://www.inkscape.org/namespaces/inkscape"
   version="1.1"
   id="svg2"
   xml:space="preserve"
   width="3558"
   height="3004.5332"
   viewBox="0 0 3558 3004.5332"
   sodipodi:docname="shutterstock_1487632967.eps"><metadata
     id="metadata8"><rdf:RDF><cc:Work
         rdf:about=""><dc:format>image/svg+xml</dc:format><dc:type
           rdf:resource="http://purl.org/dc/dcmitype/StillImage" /></cc:Work></rdf:RDF></metadata><defs
     id="defs6" /><sodipodi:namedview
     pagecolor="#ffffff"
     bordercolor="#666666"
     borderopacity="1"
     objecttolerance="10"
     gridtolerance="10"
     guidetolerance="10"
     inkscape:pageopacity="0"
     inkscape:pageshadow="2"
     inkscape:window-width="640"
     inkscape:window-height="480"
     id="namedview4" /><g
     id="g10"
     inkscape:groupmode="layer"
     inkscape:label="ink_ext_XXXXXX"
     transform="matrix(1.3333333,0,0,-1.3333333,0,3004.5333)"><g
       id="g12"
       transform="scale(0.1)"><path
         d="m 17781.3,7730.4 c -550.2,0 -843.8,237.5 -1079.8,428.3 -215.5,174.3 -385.9,312 -751.2,312 -365.1,0 -535.2,-137.7 -750.7,-312 -236,-190.8 -529.6,-428.3 -1079.6,-428.3 -550.3,0 -844.1,237.5 -1080,428.3 -215.8,174.3 -386.1,312 -751.7,312 -365.5,0 -535.8,-137.7 -751.6,-312 -235.9,-190.8 -529.7,-428.3 -1080,-428.3 -144.3,0 -261.2,116.9 -261.2,261.3 0,144.3 116.9,261.2 261.2,261.2 365.5,0 535.9,137.7 751.7,311.9 236,190.8 529.7,428.3 1079.9,428.3 550.3,0 844,-237.5 1080,-428.3 215.8,-174.2 386.2,-311.9 751.7,-311.9 365.3,0 535.4,137.7 751,311.9 236,190.8 529.3,428.3 1079.3,428.3 550.2,0 843.8,-237.5 1079.8,-428.3 215.5,-174.2 385.9,-311.9 751.2,-311.9 365,0 535.2,137.7 750.7,311.9 236,190.8 529.6,428.3 1079.6,428.3 144.4,0 261.2,-116.8 261.2,-261.2 0,-144.4 -116.8,-261.2 -261.2,-261.2 -365.3,0 -535.5,-137.7 -751,-312 -236,-190.8 -529.3,-428.3 -1079.3,-428.3"
         style="fill:#000000;fill-opacity:1;fill-rule:nonzero;stroke:none"
         id="path14" /><path
         d="m 14398.1,5128.5 c -550.1,0 -843.7,237.3 -1079.7,428.1 -215.7,174.2 -386,311.9 -751.4,311.9 -365.1,0 -535.4,-137.7 -750.8,-311.9 -236,-190.6 -529.5,-428.1 -1079.6,-428.1 -550.2,0 -843.93,237.3 -1079.89,428.1 -215.67,174.2 -386.08,311.9 -751.62,311.9 -365.67,0 -536.07,-137.7 -751.75,-311.9 -235.95,-190.8 -529.69,-428.1 -1079.92,-428.1 -144.25,0 -261.21,116.9 -261.21,261.2 0,144.4 116.96,261.3 261.21,261.3 365.54,0 535.94,137.7 751.62,311.9 235.96,190.8 529.7,428.1 1080.05,428.1 550.23,0 843.97,-237.3 1079.92,-428.1 215.69,-174.2 386.09,-311.9 751.59,-311.9 365.3,0 535.6,137.7 751,311.9 236,190.8 529.5,428.1 1079.4,428.1 550.1,0 843.9,-237.3 1079.7,-428.1 215.7,-174.2 386.1,-311.9 751.4,-311.9 365,0 535.1,137.7 750.7,311.9 235.9,190.6 529.6,428.1 1079.5,428.1 144.4,0 261.2,-116.9 261.2,-261.2 0,-144.4 -116.8,-261.3 -261.2,-261.3 -365.3,0 -535.4,-137.7 -751,-311.9 -235.9,-190.8 -529.3,-428.1 -1079.2,-428.1"
         style="fill:#000000;fill-opacity:1;fill-rule:nonzero;stroke:none"
         id="path16" /><path
         d="m 9490.4,8470.5 c -43.37,0 -87.25,10.7 -127.68,33.4 -1492.66,838.4 -2419.91,2429.7 -2419.91,4152.8 0,2618.5 2109.21,4748.8 4701.79,4748.8 2592.5,0 4701.8,-2130.3 4701.8,-4748.8 0,-1227.5 -462.2,-2391.9 -1301.4,-3279.4 -99.3,-105.1 -264.8,-108.9 -369.4,-10.2 -104.8,99.2 -109.4,264.5 -10.2,369.4 747.1,789.7 1158.6,1826.9 1158.6,2920.2 0,2330.5 -1874.9,4226.4 -4179.4,4226.4 -2304.45,0 -4179.37,-1895.9 -4179.37,-4226.4 0,-1534.6 825.09,-2951.4 2153.35,-3697.2 125.76,-70.7 170.52,-229.9 99.87,-355.6 -47.96,-85.5 -136.73,-133.4 -228.05,-133.4"
         style="fill:#000000;fill-opacity:1;fill-rule:nonzero;stroke:none"
         id="path18" /><path
         d="m 13306.1,9962.2 c -1749.7,0 -3179.6,405.6 -4267.47,1213 -1609.74,1194.6 -1846.98,2824.3 -1856.29,2893.2 -19.38,142.8 80.74,274.5 223.72,293.9 141.83,18.3 274.09,-80.7 293.86,-223.5 3.82,-26.5 230.73,-1496.6 1659.74,-2551.4 1400.54,-1033.4 3447.94,-1342.8 6088.34,-918.8 141.8,23.9 276.3,-74 299.2,-216.6 23,-142.3 -73.9,-276.3 -216.5,-299.2 -790.6,-127.1 -1532.6,-190.6 -2224.6,-190.6"
         style="fill:#000000;fill-opacity:1;fill-rule:nonzero;stroke:none"
         id="path20" /><path
         d="m 16085.5,12243 c -91.1,0 -179.6,47.7 -227.8,132.6 -2722.1,4818.7 -7657.04,2524.4 -7865.57,2424.4 -129.59,-62.8 -286.09,-7.7 -348.45,122.7 -62.38,130.1 -7.41,285.9 122.69,348.2 55.48,26.8 5586.93,2600.1 8546.43,-2638.1 70.9,-125.8 26.5,-285 -99,-356.2 -40.6,-22.7 -84.7,-33.6 -128.3,-33.6"
         style="fill:#000000;fill-opacity:1;fill-rule:nonzero;stroke:none"
         id="path22" /></g></g></svg>
