<?xml version="1.0" encoding="UTF-8" standalone="no"?>
<svg
   xmlns:dc="http://purl.org/dc/elements/1.1/"
   xmlns:cc="http://creativecommons.org/ns#"
   xmlns:rdf="http://www.w3.org/1999/02/22-rdf-syntax-ns#"
   xmlns:svg="http://www.w3.org/2000/svg"
   xmlns="http://www.w3.org/2000/svg"
   xmlns:sodipodi="http://sodipodi.sourceforge.net/DTD/sodipodi-0.dtd"
   xmlns:inkscape="http://www.inkscape.org/namespaces/inkscape"
   version="1.1"
   id="svg2"
   xml:space="preserve"
   width="100"
   height="30"
   viewBox="0 0 1866.6667 1400"
   sodipodi:docname="shutterstock_274138187.eps"><metadata
     id="metadata8"><rdf:RDF><cc:Work
         rdf:about=""><dc:format>image/svg+xml</dc:format><dc:type
           rdf:resource="http://purl.org/dc/dcmitype/StillImage" /></cc:Work></rdf:RDF></metadata><defs
     id="defs6" /><sodipodi:namedview
     pagecolor="#ffffff"
     bordercolor="#666666"
     borderopacity="1"
     objecttolerance="10"
     gridtolerance="10"
     guidetolerance="10"
     inkscape:pageopacity="0"
     inkscape:pageshadow="2"
     inkscape:window-width="640"
     inkscape:window-height="480"
     id="namedview4" /><g
     id="g10"
     inkscape:groupmode="layer"
     inkscape:label="ink_ext_XXXXXX"
     transform="matrix(1.3333333,0,0,-1.3333333,0,1400)"><g
       id="g12"
       transform="scale(0.1)"><path
         d="M 14000,875 C 14000,393.711 13606.3,0 13125,0 H 875 C 393.711,0 0,393.711 0,875 v 0 c 0,481.29 393.711,875 875,875 h 12250 c 481.3,0 875,-393.71 875,-875 v 0"
         style="fill:#100f0d;fill-opacity:1;fill-rule:nonzero;stroke:none"
         id="path14" /><path
         d="m 14000,5250 c 0,-481.29 -393.7,-875 -875,-875 H 875 C 393.711,4375 0,4768.71 0,5250 v 0 c 0,481.29 393.711,875 875,875 h 12250 c 481.3,0 875,-393.71 875,-875 v 0"
         style="fill:#100f0d;fill-opacity:1;fill-rule:nonzero;stroke:none"
         id="path16" /><path
         d="m 14000,9625 c 0,-481.29 -393.7,-875 -875,-875 H 875 C 393.711,8750 0,9143.71 0,9625 v 0 c 0,481.3 393.711,875 875,875 h 12250 c 481.3,0 875,-393.7 875,-875 v 0"
         style="fill:#100f0d;fill-opacity:1;fill-rule:nonzero;stroke:none"
         id="path18" /></g></g></svg>
