<?xml version="1.0" encoding="UTF-8" standalone="no"?>
<svg
   xmlns:dc="http://purl.org/dc/elements/1.1/"
   xmlns:cc="http://creativecommons.org/ns#"
   xmlns:rdf="http://www.w3.org/1999/02/22-rdf-syntax-ns#"
   xmlns:svg="http://www.w3.org/2000/svg"
   xmlns="http://www.w3.org/2000/svg"
   xmlns:sodipodi="http://sodipodi.sourceforge.net/DTD/sodipodi-0.dtd"
   xmlns:inkscape="http://www.inkscape.org/namespaces/inkscape"
   version="1.1"
   id="svg2"
   xml:space="preserve"
   width="600"
   height="600"
   viewBox="0 0 600 600"
   sodipodi:docname="shutterstock_730386832.eps"><metadata
     id="metadata8"><rdf:RDF><cc:Work
         rdf:about=""><dc:format>image/svg+xml</dc:format><dc:type
           rdf:resource="http://purl.org/dc/dcmitype/StillImage" /></cc:Work></rdf:RDF></metadata><defs
     id="defs6" /><sodipodi:namedview
     pagecolor="#ffffff"
     bordercolor="#666666"
     borderopacity="1"
     objecttolerance="10"
     gridtolerance="10"
     guidetolerance="10"
     inkscape:pageopacity="0"
     inkscape:pageshadow="2"
     inkscape:window-width="640"
     inkscape:window-height="480"
     id="namedview4" /><g
     id="g10"
     inkscape:groupmode="layer"
     inkscape:label="ink_ext_XXXXXX"
     transform="matrix(1.3333333,0,0,-1.3333333,0,600)"><g
       id="g12"
       transform="scale(0.1)"><path
         d="m 1650.17,1888.96 c -20.7,0 -37.5,16.8 -37.5,37.5 v 947.95 c 0,105.67 85.99,191.65 191.68,191.65 105.68,0 191.65,-85.98 191.65,-191.65 v -22.95 c 0,-20.7 -16.8,-37.5 -37.5,-37.5 -20.71,0 -37.5,16.8 -37.5,37.5 v 22.95 c 0,64.31 -52.32,116.65 -116.65,116.65 -64.34,0 -116.68,-52.34 -116.68,-116.65 v -947.95 c 0,-20.7 -16.8,-37.5 -37.5,-37.5"
         style="fill:#000000;fill-opacity:1;fill-rule:nonzero;stroke:none"
         id="path14" /><path
         d="m 2450.27,1888.96 c -20.7,0 -37.5,16.8 -37.5,37.5 v 947.95 c 0,105.67 85.98,191.65 191.67,191.65 105.69,0 191.65,-85.98 191.65,-191.65 v -22.95 c 0,-20.7 -16.79,-37.5 -37.5,-37.5 -20.7,0 -37.5,16.8 -37.5,37.5 v 22.95 c 0,64.31 -52.32,116.65 -116.65,116.65 -64.33,0 -116.67,-52.34 -116.67,-116.65 v -947.95 c 0,-20.7 -16.8,-37.5 -37.5,-37.5"
         style="fill:#000000;fill-opacity:1;fill-rule:nonzero;stroke:none"
         id="path16" /><path
         d="m 2450.27,2649.95 h -800.1 c -20.7,0 -37.5,16.8 -37.5,37.5 0,20.7 16.8,37.5 37.5,37.5 h 800.1 c 20.7,0 37.5,-16.8 37.5,-37.5 0,-20.7 -16.8,-37.5 -37.5,-37.5"
         style="fill:#000000;fill-opacity:1;fill-rule:nonzero;stroke:none"
         id="path18" /><path
         d="m 2450.27,2394.09 h -800.1 c -20.7,0 -37.5,16.8 -37.5,37.5 0,20.7 16.8,37.5 37.5,37.5 h 800.1 c 20.7,0 37.5,-16.8 37.5,-37.5 0,-20.7 -16.8,-37.5 -37.5,-37.5"
         style="fill:#000000;fill-opacity:1;fill-rule:nonzero;stroke:none"
         id="path20" /><path
         d="m 2450.27,2138.23 h -800.1 c -20.7,0 -37.5,16.8 -37.5,37.5 0,20.71 16.8,37.5 37.5,37.5 h 800.1 c 20.7,0 37.5,-16.79 37.5,-37.5 0,-20.7 -16.8,-37.5 -37.5,-37.5"
         style="fill:#000000;fill-opacity:1;fill-rule:nonzero;stroke:none"
         id="path22" /><path
         d="m 2650.59,1777.59 c -76.96,0 -148.73,31.98 -200.1,87.45 -51.34,-55.47 -123.1,-87.45 -200.07,-87.45 -76.98,0 -148.74,31.98 -200.08,87.45 -51.37,-55.47 -123.14,-87.45 -200.1,-87.45 -76.97,0 -148.73,31.98 -200.07,87.45 -51.37,-55.47 -123.14,-87.45 -200.1,-87.45 -94.48,0 -181.15,48.19 -231.83,128.95 -11.01,17.53 -5.72,40.68 11.81,51.66 17.53,11.04 40.7,5.76 51.71,-11.81 36.87,-58.74 99.81,-93.8 168.31,-93.8 68.53,0 131.47,35.06 168.34,93.8 6.86,10.93 18.85,17.57 31.76,17.57 v 0 c 12.92,0 24.9,-6.64 31.76,-17.57 36.87,-58.74 99.78,-93.8 168.31,-93.8 68.53,0 131.47,35.06 168.34,93.8 6.86,10.93 18.85,17.57 31.76,17.57 v 0 c 12.92,0 24.9,-6.64 31.76,-17.57 36.87,-58.74 99.78,-93.8 168.32,-93.8 68.53,0 131.44,35.06 168.31,93.8 13.69,21.87 49.78,21.87 63.52,0 36.87,-58.74 99.81,-93.8 168.34,-93.8 68.5,0 131.44,35.06 168.31,93.8 11.03,17.62 34.18,22.85 51.71,11.81 17.52,-10.98 22.82,-34.13 11.81,-51.66 -50.68,-80.76 -137.35,-128.95 -231.83,-128.95"
         style="fill:#000000;fill-opacity:1;fill-rule:nonzero;stroke:none"
         id="path24" /><path
         d="m 3049.93,1433.94 c -76.96,0 -148.73,31.98 -200.1,87.45 -51.34,-55.47 -123.1,-87.45 -200.07,-87.45 -76.96,0 -148.73,31.98 -200.1,87.45 -51.34,-55.47 -123.1,-87.45 -200.08,-87.45 -76.97,0 -148.73,31.98 -200.07,87.45 -51.37,-55.47 -123.14,-87.45 -200.1,-87.45 -94.48,0 -181.15,48.19 -231.83,128.95 -11.01,17.53 -5.71,40.67 11.81,51.66 17.56,11.08 40.7,5.76 51.71,-11.82 36.87,-58.74 99.81,-93.79 168.31,-93.79 68.53,0 131.47,35.05 168.34,93.79 6.86,10.94 18.85,17.58 31.76,17.58 v 0 c 12.92,0 24.9,-6.64 31.76,-17.58 36.87,-58.74 99.78,-93.79 168.31,-93.79 68.54,0 131.45,35.05 168.32,93.79 13.69,21.88 49.78,21.88 63.52,0 36.87,-58.74 99.81,-93.79 168.34,-93.79 68.53,0 131.44,35.05 168.31,93.79 13.72,21.88 49.8,21.88 63.52,0 36.87,-58.74 99.81,-93.79 168.34,-93.79 68.5,0 131.44,35.05 168.31,93.79 11.03,17.63 34.25,22.86 51.71,11.82 17.53,-10.99 22.82,-34.13 11.81,-51.66 -50.68,-80.76 -137.35,-128.95 -231.83,-128.95"
         style="fill:#000000;fill-opacity:1;fill-rule:nonzero;stroke:none"
         id="path26" /></g></g></svg>
