<?xml version="1.0" encoding="UTF-8" standalone="no"?>
<svg
   xmlns:dc="http://purl.org/dc/elements/1.1/"
   xmlns:cc="http://creativecommons.org/ns#"
   xmlns:rdf="http://www.w3.org/1999/02/22-rdf-syntax-ns#"
   xmlns:svg="http://www.w3.org/2000/svg"
   xmlns="http://www.w3.org/2000/svg"
   xmlns:sodipodi="http://sodipodi.sourceforge.net/DTD/sodipodi-0.dtd"
   xmlns:inkscape="http://www.inkscape.org/namespaces/inkscape"
   version="1.1"
   id="svg2"
   xml:space="preserve"
   width="3558"
   height="3004.5332"
   viewBox="0 0 3558 3004.5332"
   sodipodi:docname="shutterstock_1487632961.eps"><metadata
     id="metadata8"><rdf:RDF><cc:Work
         rdf:about=""><dc:format>image/svg+xml</dc:format><dc:type
           rdf:resource="http://purl.org/dc/dcmitype/StillImage" /></cc:Work></rdf:RDF></metadata><defs
     id="defs6" /><sodipodi:namedview
     pagecolor="#ffffff"
     bordercolor="#666666"
     borderopacity="1"
     objecttolerance="10"
     gridtolerance="10"
     guidetolerance="10"
     inkscape:pageopacity="0"
     inkscape:pageshadow="2"
     inkscape:window-width="640"
     inkscape:window-height="480"
     id="namedview4" /><g
     id="g10"
     inkscape:groupmode="layer"
     inkscape:label="ink_ext_XXXXXX"
     transform="matrix(1.3333333,0,0,-1.3333333,0,3004.5333)"><g
       id="g12"
       transform="scale(0.1)"><path
         d="m 8529.96,9239.1 50.51,-14.3 c 444.62,8.4 886.95,231.9 1315.5,664.3 51.78,52.3 126.03,80.3 197.13,77 73.8,-3.3 142.6,-37.8 189.6,-94.4 4.6,-5.6 522.7,-614.2 1253,-645.4 470.6,-23.9 940.5,203.1 1397.9,663 51.8,52.3 124.5,81.9 197.2,76.8 73.7,-3.3 142.3,-37.8 189.2,-94.6 0.3,-0.3 0.5,-0.5 1,-1.1 l 2127,1440.8 c 249,167.8 418.3,423.9 477,721.6 55.9,297.7 -6.1,599.5 -175,850 -107.9,158.2 -558.4,612.2 -657.9,673.7 l -2957,1664.4 c -85.4,47.2 -186.2,59.2 -281.8,31.7 l -3083.55,-863 c -96.68,-26.8 -176.27,-88.5 -224.99,-174.5 -48.98,-86.4 -61.22,-187.2 -34.18,-283.9 11.73,-38.5 29.33,-77 50.25,-107.9 89.54,-131.9 252.54,-191.8 406.36,-148.4 l 2833.31,792.5 c 67.3,18.9 138.2,10 198.7,-24 L 13836.8,13408 c 78.1,-44.1 128.4,-125.2 132.7,-214.8 4.3,-89.8 -37.8,-175.2 -111.2,-226.7 z m 24.24,-537 c -26.03,0.5 -54.6,2.6 -80.87,10 l -615.02,174.7 c -96.93,27.6 -169.38,108.4 -186.21,207.9 -16.58,99.5 25.25,199.8 107.9,257.4 l 5438.8,3804.7 -1381.9,778.5 -2728.14,-763.2 c -369.37,-104.6 -763.74,39 -980.05,357.9 -50.26,73.9 -90.56,159.7 -119.64,254.8 -66.07,237.7 -36.74,479.6 81.12,687.7 117.59,207.7 309.17,356.9 539.77,420.4 l 3081.94,862.7 c 228.6,64.8 469.2,36.5 677.8,-78.6 l 2960.6,-1666.4 c 188.8,-106.9 702,-643.9 832.1,-834.7 247.2,-366.8 337.7,-807.1 255.8,-1241 0,-0.5 -0.2,-1.3 -0.2,-2.1 -85.7,-434.4 -333.4,-808.8 -697.4,-1054.5 L 13434.8,9316.6 c -99.2,-67.5 -232.4,-58.1 -321.9,22.8 -0.3,0.2 -0.5,0.7 -1,1 -510.5,-447.5 -1046.7,-662.8 -1604.3,-635.7 -662.7,30.1 -1171.1,398.2 -1432.8,635.4 -482.65,-423.4 -993.34,-638 -1520.6,-638"
         style="fill:#000000;fill-opacity:1;fill-rule:nonzero;stroke:none"
         id="path14" /><path
         d="m 18060.9,15702.8 c -242.4,0 -487.2,-69.6 -702.5,-215.3 -574.2,-388.5 -725.3,-1172.1 -337,-1746.3 388.7,-574.7 1172.9,-725.2 1746.3,-337 v 0 c 574.2,388.5 725.5,1171.9 337,1746.1 -242.8,358.9 -640,552.5 -1043.8,552.5 z m 4.8,-3036.3 c -571.4,0 -1133.1,273.9 -1476.9,781.8 -549.8,813 -336,1921.9 476.7,2471.9 813.5,549.2 1922.1,335.6 2471.8,-477.1 550,-812.9 336,-1921.8 -476.7,-2471.5 -304.9,-206.4 -651.8,-305.1 -994.9,-305.1"
         style="fill:#000000;fill-opacity:1;fill-rule:nonzero;stroke:none"
         id="path16" /><path
         d="m 8542.46,8702.1 c -1003.27,8.7 -1671.86,802.8 -1699.92,836.5 l 402.54,333.1 c 4.84,-5.8 545.64,-640.8 1301.97,-647.1 l -4.59,-522.5"
         style="fill:#000000;fill-opacity:1;fill-rule:nonzero;stroke:none"
         id="path18" /><path
         d="m 17670.8,8702.6 c -29.3,0 -58.6,0.6 -88.2,2.1 -663,30.1 -1171.7,398.4 -1432.9,635.7 -1428,-1250 -2675.9,-326.5 -3036.3,-1.3 l 350,387.7 c 461.7,-416.8 1401.5,-950.2 2507.8,162.5 l 203,204.1 183.4,-221.7 c 4.6,-5.6 522.7,-614.2 1253,-645.4 470.4,-23.9 940.6,203.1 1397.9,663 l 370.4,-368.3 c -540,-543.4 -1114.2,-818.4 -1708.1,-818.4"
         style="fill:#000000;fill-opacity:1;fill-rule:nonzero;stroke:none"
         id="path20" /><path
         d="m 14633.7,6309.1 c -29,0 -58.1,0.8 -87.2,2.1 -663.5,30.1 -1172.6,398.7 -1434.4,636.4 -510.1,-447.9 -1056.5,-658.9 -1603.2,-636.4 -663.5,30.1 -1172.4,398.7 -1434.1,636.4 -509.94,-447.7 -1048.69,-660.6 -1603.26,-636.4 -963.98,43.6 -1602.21,802.5 -1629,834.6 l 402.54,333.2 c 4.59,-5.6 523.44,-615.3 1254.27,-646.2 469.87,-18.1 940.01,203.6 1396.62,663.5 l 203.03,204.6 183.7,-221.9 c 4.6,-5.6 523.2,-615.3 1254,-646.2 468.1,-18.1 940,203.6 1396.6,663.5 l 203.1,204.6 183.6,-221.9 c 4.6,-5.6 523.5,-615.3 1254.3,-646.2 468.9,-18.1 940,203.6 1396.6,663.5 l 203.1,204.6 183.6,-221.9 c 4.6,-5.6 523.2,-615.3 1254.1,-646.2 470.1,-18.1 940,203.6 1396.6,663.5 l 370.9,-367.8 c -566.3,-570.9 -1177.3,-844.1 -1795.3,-817.3 -663.5,30.1 -1172.4,398.7 -1434.2,636.4 -483.1,-424.2 -991.7,-638.5 -1516,-638.5"
         style="fill:#000000;fill-opacity:1;fill-rule:nonzero;stroke:none"
         id="path22" /></g></g></svg>
